<svg width="27" height="24" viewBox="0 0 27 24" fill="none" xmlns="http://www.w3.org/2000/svg">
<g clip-path="url(#clip0_28_136)">
<path d="M4.99027 23.0024L21.9354 23.0355C24.6969 23.0409 26.9398 20.8067 26.9452 18.0453L26.9706 5.04292C26.976 2.28151 24.7418 0.0385566 21.9804 0.0331587L5.03523 3.47486e-05C2.27381 -0.00536319 0.0308647 2.22883 0.0254667 4.99025L5.00702e-05 17.9926C-0.00534787 20.754 2.22885 22.997 4.99027 23.0024Z" fill="#3C8BED"/>
<path d="M5.99011 8.99023C5.99011 8.43795 5.5424 7.99023 4.99011 7.99023C4.43783 7.99023 3.99011 8.43795 3.99011 8.99023V15.9902C3.99011 16.5425 4.43783 16.9902 4.99011 16.9902C5.5424 16.9902 5.99011 16.5425 5.99011 15.9902V8.99023Z" fill="#D9D9D9"/>
<path d="M22.9901 7.99023H4.99011C4.43783 7.99023 3.99011 8.43795 3.99011 8.99023C3.99011 9.54252 4.43783 9.99023 4.99011 9.99023H22.9901C23.5424 9.99023 23.9901 9.54252 23.9901 8.99023C23.9901 8.43795 23.5424 7.99023 22.9901 7.99023Z" fill="#D9D9D9"/>
</g>
<defs>
<clipPath id="clip0_28_136">
<rect width="27" height="24" fill="white"/>
</clipPath>
</defs>
</svg>
